<svg id="atav_logo" data-name="atav_logo" xmlns="http://www.w3.org/2000/svg" viewBox="0 0 455.64 143.96"><defs><style>.cls-1{fill:#194f90;}</style></defs><path class="cls-1" d="M350.08,14.19,398.56,153H424.1l48.28-138.8H441.61l-30.38,93.34L380.85,14.19ZM298.17,54l15.7,48.88H282.48Zm-31.58,99L275,126.64h46.47L330,153h30L311.65,14.19H284.7L236.42,153ZM78.5,54,94.19,102.9H62.81ZM46.92,153l8.45-26.35h46.47L110.29,153h30L92,14.19H65L16.75,153Z" transform="translate(-16.75 -11.38)"/><path class="cls-1" d="M170.66,97.63a25.6,25.6,0,0,0,3.63,3.15,8.39,8.39,0,0,0,1.45.94l1.1.64c.61.33.93.52.93.52l-.67-.83c-.43-.53-1.15-1.28-1.9-2.3A37,37,0,0,1,172.78,96l-.66-1.14c-.2-.4-.38-.84-.57-1.27a21.31,21.31,0,0,1-1.14-2.73c-.17-.48-.35-1-.52-1.47a15.72,15.72,0,0,1-.42-1.57c-.14-.52-.28-1.06-.42-1.61s-.18-1.12-.28-1.69a37.35,37.35,0,0,1-.41-7.17,36.7,36.7,0,0,1,1.27-7.48,35.36,35.36,0,0,1,1.24-3.68c.24-.6.55-1.17.82-1.77a12.8,12.8,0,0,1,.9-1.72l1-1.69c.33-.56.76-1.05,1.12-1.58l.57-.79.15-.19.07-.1,0,0c-.13.15,0,0,0,0l0,0,.34-.41c.46-.53.94-1.14,1.38-1.61l1.31-1.39,1.42-1.43c1-.93,1.94-1.85,2.92-2.76l5.78-5.29c1.84-1.71,3.56-3.43,5.08-5.08a45,45,0,0,0,3.85-4.81,19.71,19.71,0,0,0,1.4-2.17,20.59,20.59,0,0,0,1-1.92c.28-.6.54-1.12.72-1.59l.43-1.23c.21-.65.33-1,.33-1l-.68.81c-.22.27-.48.6-.8,1s-.71.78-1.15,1.24a16.93,16.93,0,0,1-1.47,1.46q-.42.39-.84.81l-1,.83c-.64.57-1.36,1.15-2.14,1.74s-1.58,1.21-2.43,1.84c-3.44,2.55-7.67,5.26-12.12,8.63-1.12.83-2.23,1.75-3.35,2.69l-1.68,1.46-1.69,1.66c-.55.55-1,1.06-1.49,1.6l-.37.39-.11.13,0,.06-.09.12-.18.24-.73,1c-.46.64-1,1.26-1.41,1.94l-1.25,2.07a18.78,18.78,0,0,0-1.08,2.15c-.32.74-.69,1.45-1,2.2a34.49,34.49,0,0,0-1.37,4.56c-.16.77-.36,1.53-.48,2.3s-.18,1.55-.26,2.31a36.54,36.54,0,0,0-.14,4.54,34.37,34.37,0,0,0,1.49,8.4c.21.64.42,1.27.62,1.89l.79,1.77a22.27,22.27,0,0,0,1.71,3.22,19.49,19.49,0,0,0,1.9,2.74c.32.41.63.82,1,1.2s.69.7,1,1" transform="translate(-16.75 -11.38)"/><path class="cls-1" d="M210.83,66.09a37.6,37.6,0,0,0-1.59-5.49,32.67,32.67,0,0,0-1.47-3.35c-.38-.74-.63-1.12-.63-1.12a41.34,41.34,0,0,1,.72,4.79c.11,1,.19,2.24.24,3.57h-23a3,3,0,1,0,0,1.4h23.06a49.86,49.86,0,0,1-.39,6.64h-27a3,3,0,1,0,0,1.39h26.78a42.34,42.34,0,0,1-1.65,6.64H180a3,3,0,1,0,0,1.4h25.39a38.21,38.21,0,0,1-3.22,6.64H182.06a3,3,0,1,0,0,1.39h19.2A44.64,44.64,0,0,1,196,96.45c-.06.07-.13.12-.19.18h-9.35a3,3,0,1,0,0,1.4h7.9a1.36,1.36,0,0,1-.12.12c-.6.54-1.2,1.12-1.82,1.6s-1.16,1-1.9,1.54l-2.14,1.59-2.18,1.64c-.75.55-1.45,1.2-2.17,1.8a48.65,48.65,0,0,0-4,3.93,42,42,0,0,0-6.31,9,38.74,38.74,0,0,0-3.48,9.59,37.67,37.67,0,0,0-.85,9,37,37,0,0,0,.86,7.45,36,36,0,0,0,1.58,5.48,31.12,31.12,0,0,0,1.46,3.35c.39.75.63,1.13.63,1.13a41.84,41.84,0,0,1-.72-4.79,51,51,0,0,1,.23-12.39,41.3,41.3,0,0,1,5.75-15.77,43.52,43.52,0,0,1,5.87-7.38,21.51,21.51,0,0,1,1.75-1.69c.61-.55,1.2-1.11,1.85-1.63s1.25-1.08,1.93-1.56l2.09-1.54,2.12-1.6c.7-.51,1.48-1.22,2.2-1.82a27.93,27.93,0,0,0,2.1-1.93,26.5,26.5,0,0,0,1.95-2,41.77,41.77,0,0,0,6.31-9,38.15,38.15,0,0,0,4.34-18.56,37.69,37.69,0,0,0-.86-7.45" transform="translate(-16.75 -11.38)"/><polygon class="cls-1" points="225.72 38.48 225.72 0 223.48 0 218.01 0 122.38 0 118.52 0 114.67 0 114.67 38.48 115.75 38.48 148.2 38.48 155.9 30.78 122.38 30.78 122.38 7.7 218.02 7.7 218.01 30.78 190.71 30.78 183 38.48 218.02 38.48 220.36 38.48 225.72 38.48"/><polygon class="cls-1" points="190.24 143.96 190.24 136.34 190.24 133.03 190.24 96.59 183 103.83 183 133.03 183 136.72 180.16 136.72 154.52 136.72 157.15 143.96 180.16 143.96 183 143.96 187.86 143.96 187.91 143.96 190.24 143.96"/></svg>